<svg width="160" height="120" viewBox="0 0 160 120" fill="none" xmlns="http://www.w3.org/2000/svg">
  <path fill-rule="evenodd" clip-rule="evenodd" d="M112.534 19.0476L79.543 0L46.5515 19.0476V57.1429L79.543 76.1905L112.534 57.1429V19.0476ZM99.3378 26.6667L79.543 15.2381L59.7481 26.6667V49.5238L79.543 60.9524L99.3378 49.5238V26.6667Z" fill="url(#paint0_linear_1448_14)"/>
  <path d="M148.234 93.8459L148.244 88.5368H148.888L154 82.4796H159.08L152.213 90.5004H151.163L148.234 93.8459ZM144.223 98.4381V77.1602H148.649V98.4381H144.223ZM154.197 98.4381L149.501 91.4874L152.452 88.3602L159.382 98.4381H154.197Z" fill="black"/>
  <path d="M134.262 98.7497C132.628 98.7497 131.222 98.4033 130.044 97.7107C128.874 97.0111 127.973 96.0414 127.343 94.8016C126.719 93.5618 126.408 92.1349 126.408 90.5211C126.408 88.8864 126.723 87.4527 127.353 86.2198C127.99 84.98 128.894 84.0137 130.065 83.3211C131.235 82.6215 132.628 82.2717 134.241 82.2717C135.634 82.2717 136.853 82.5245 137.899 83.0302C138.945 83.5358 139.772 84.2458 140.382 85.16C140.991 86.0743 141.327 87.1479 141.39 88.3808H137.213C137.095 87.5843 136.783 86.9436 136.278 86.4587C135.779 85.967 135.125 85.7211 134.314 85.7211C133.628 85.7211 133.029 85.9081 132.517 86.2821C132.011 86.6492 131.616 87.186 131.332 87.8925C131.048 88.599 130.906 89.4544 130.906 90.4587C130.906 91.4769 131.045 92.3427 131.322 93.0561C131.606 93.7696 132.004 94.3133 132.517 94.6873C133.029 95.0613 133.628 95.2484 134.314 95.2484C134.82 95.2484 135.274 95.1445 135.675 94.9367C136.084 94.7289 136.42 94.4276 136.683 94.0328C136.953 93.631 137.13 93.1496 137.213 92.5886H141.39C141.32 93.8077 140.988 94.8813 140.392 95.8094C139.803 96.7306 138.99 97.4509 137.951 97.9704C136.912 98.4899 135.682 98.7497 134.262 98.7497Z" fill="black"/>
  <path d="M116.839 98.7497C115.197 98.7497 113.784 98.4172 112.6 97.7522C111.422 97.0804 110.515 96.1315 109.878 94.9055C109.24 93.6726 108.922 92.2146 108.922 90.5315C108.922 88.8899 109.24 87.4492 109.878 86.2094C110.515 84.9696 111.412 84.0033 112.569 83.3107C113.732 82.618 115.097 82.2717 116.662 82.2717C117.715 82.2717 118.695 82.4414 119.602 82.7808C120.517 83.1133 121.313 83.6155 121.992 84.2873C122.678 84.9592 123.211 85.8042 123.592 86.8224C123.973 87.8336 124.163 89.018 124.163 90.3756V91.5912H110.688V88.8484H119.997C119.997 88.2111 119.859 87.6466 119.582 87.1548C119.305 86.6631 118.92 86.2787 118.428 86.0016C117.944 85.7176 117.379 85.5756 116.735 85.5756C116.063 85.5756 115.467 85.7315 114.948 86.0432C114.435 86.3479 114.034 86.76 113.743 87.2795C113.452 87.7921 113.303 88.3635 113.296 88.9938V91.6016C113.296 92.3912 113.441 93.0735 113.732 93.6484C114.03 94.2232 114.449 94.6665 114.989 94.9782C115.53 95.2899 116.17 95.4458 116.911 95.4458C117.403 95.4458 117.853 95.3765 118.262 95.238C118.671 95.0994 119.021 94.8916 119.311 94.6146C119.602 94.3375 119.824 93.9981 119.976 93.5964L124.07 93.8665C123.862 94.8501 123.436 95.709 122.792 96.4432C122.155 97.1704 121.331 97.7384 120.319 98.1471C119.315 98.5488 118.155 98.7497 116.839 98.7497Z" fill="black"/>
  <path d="M95.7351 89.2121V98.4381H91.3091V77.1602H95.6104V85.2952H95.7974C96.1576 84.3532 96.7394 83.6156 97.5429 83.0822C98.3463 82.542 99.3541 82.2718 100.566 82.2718C101.674 82.2718 102.641 82.5143 103.465 82.9991C104.296 83.477 104.94 84.1662 105.397 85.0667C105.861 85.9602 106.09 87.0303 106.083 88.277V98.4381H101.657V89.0667C101.664 88.0831 101.415 87.3177 100.909 86.7705C100.41 86.2234 99.7108 85.9498 98.8104 85.9498C98.2078 85.9498 97.6745 86.0779 97.2104 86.3342C96.7532 86.5905 96.3931 86.9645 96.1299 87.4563C95.8736 87.9411 95.742 88.5264 95.7351 89.2121Z" fill="black"/>
  <path d="M88.1661 84.6094H83.6155C83.5324 84.0207 83.3627 83.4977 83.1064 83.0406C82.8501 82.5765 82.5211 82.1817 82.1194 81.8562C81.7176 81.5306 81.2536 81.2813 80.7272 81.1081C80.2077 80.9349 79.6432 80.8484 79.0337 80.8484C77.9324 80.8484 76.973 81.122 76.1557 81.6691C75.3384 82.2094 74.7046 82.999 74.2544 84.038C73.8042 85.07 73.5791 86.3237 73.5791 87.799C73.5791 89.3159 73.8042 90.5904 74.2544 91.6224C74.7116 92.6544 75.3488 93.4336 76.1661 93.9601C76.9834 94.4865 77.9289 94.7497 79.0025 94.7497C79.6051 94.7497 80.1627 94.67 80.6752 94.5107C81.1947 94.3514 81.6553 94.1194 82.057 93.8146C82.4588 93.5029 82.7912 93.1254 83.0544 92.6821C83.3246 92.2388 83.5116 91.7332 83.6155 91.1652L88.1661 91.186C88.0484 92.1626 87.754 93.1046 87.283 94.012C86.8189 94.9124 86.1921 95.7194 85.4025 96.4328C84.6198 97.1393 83.6847 97.7003 82.5973 98.1159C81.5168 98.5246 80.2943 98.7289 78.9298 98.7289C77.0319 98.7289 75.3349 98.2994 73.8388 97.4406C72.3497 96.5817 71.1722 95.3384 70.3064 93.7107C69.4475 92.083 69.0181 90.1124 69.0181 87.799C69.0181 85.4787 69.4544 83.5046 70.3272 81.8769C71.1999 80.2492 72.3843 79.0094 73.8804 78.1575C75.3765 77.2986 77.0596 76.8691 78.9298 76.8691C80.1627 76.8691 81.3055 77.0423 82.3583 77.3886C83.4181 77.7349 84.3566 78.2406 85.1739 78.9055C85.9912 79.5635 86.6562 80.3704 87.1687 81.3263C87.6882 82.2821 88.0207 83.3765 88.1661 84.6094Z" fill="black"/>
  <path d="M54.8987 104.423C54.3376 104.423 53.8112 104.378 53.3195 104.288C52.8346 104.204 52.4329 104.097 52.1143 103.965L53.1117 100.662C53.6311 100.821 54.0987 100.907 54.5143 100.921C54.9368 100.935 55.3004 100.838 55.6052 100.63C55.9169 100.423 56.1697 100.069 56.3636 99.5706L56.6234 98.8953L50.8987 82.4797H55.5532L58.8571 94.1992H59.0234L62.3584 82.4797H67.0441L60.8415 100.163C60.5437 101.022 60.1385 101.77 59.626 102.407C59.1203 103.051 58.4796 103.546 57.7039 103.893C56.9281 104.246 55.9931 104.423 54.8987 104.423Z" fill="black"/>
  <path d="M49.0154 87.0302L44.9635 87.2795C44.8942 86.9332 44.7453 86.6215 44.5167 86.3445C44.2882 86.0605 43.9869 85.8354 43.6128 85.6691C43.2457 85.496 42.8059 85.4094 42.2933 85.4094C41.6076 85.4094 41.0293 85.5548 40.5583 85.8458C40.0873 86.1297 39.8518 86.5107 39.8518 86.9886C39.8518 87.3696 40.0042 87.6916 40.3089 87.9548C40.6137 88.218 41.1366 88.4293 41.8778 88.5886L44.7661 89.1704C46.3176 89.489 47.4743 90.0016 48.2362 90.7081C48.9981 91.4146 49.3791 92.3427 49.3791 93.4925C49.3791 94.5384 49.0708 95.4561 48.4544 96.2458C47.8449 97.0354 47.0068 97.6518 45.9401 98.0951C44.8804 98.5315 43.6578 98.7497 42.2726 98.7497C40.16 98.7497 38.4769 98.3098 37.2232 97.4302C35.9765 96.5436 35.2457 95.3384 35.031 93.8146L39.3843 93.586C39.5159 94.2302 39.8345 94.7219 40.3401 95.0613C40.8457 95.3938 41.4933 95.56 42.283 95.56C43.0587 95.56 43.6821 95.4111 44.1531 95.1133C44.631 94.8085 44.8734 94.4172 44.8804 93.9393C44.8734 93.5375 44.7037 93.2085 44.3713 92.9522C44.0388 92.689 43.5262 92.4882 42.8336 92.3497L40.07 91.799C38.5115 91.4873 37.3514 90.9471 36.5894 90.1782C35.8345 89.4094 35.457 88.4293 35.457 87.238C35.457 86.2129 35.734 85.3297 36.2881 84.5886C36.8492 83.8475 37.6353 83.2761 38.6466 82.8743C39.6648 82.4726 40.8561 82.2717 42.2206 82.2717C44.2362 82.2717 45.8224 82.6977 46.9791 83.5496C48.1427 84.4016 48.8215 85.5618 49.0154 87.0302Z" fill="black"/>
  <path d="M23.3168 98.7393C22.2986 98.7393 21.3912 98.5626 20.5947 98.2094C19.7982 97.8492 19.1679 97.3193 18.7038 96.6198C18.2466 95.9133 18.0181 95.0336 18.0181 93.9808C18.0181 93.0942 18.1808 92.3497 18.5064 91.7471C18.8319 91.1445 19.2752 90.6596 19.8362 90.2925C20.3973 89.9254 21.0345 89.6484 21.7479 89.4613C22.4683 89.2743 23.2233 89.1427 24.0129 89.0665C24.941 88.9696 25.6891 88.8795 26.257 88.7964C26.825 88.7064 27.2371 88.5748 27.4934 88.4016C27.7497 88.2284 27.8778 87.9722 27.8778 87.6328V87.5704C27.8778 86.9124 27.67 86.4033 27.2544 86.0432C26.8458 85.683 26.264 85.5029 25.509 85.5029C24.7124 85.5029 24.0787 85.6795 23.6077 86.0328C23.1367 86.3791 22.825 86.8155 22.6726 87.3419L18.5791 87.0094C18.7869 86.0397 19.1956 85.2016 19.8051 84.4951C20.4146 83.7817 21.2008 83.2345 22.1635 82.8535C23.1332 82.4657 24.2553 82.2717 25.5298 82.2717C26.4163 82.2717 27.2648 82.3756 28.0752 82.5834C28.8925 82.7912 29.6163 83.1133 30.2466 83.5497C30.8839 83.986 31.386 84.5471 31.7531 85.2328C32.1202 85.9116 32.3038 86.7254 32.3038 87.6743V98.438H28.1064V96.225H27.9817C27.7254 96.7237 27.3826 97.1635 26.9531 97.5445C26.5237 97.9185 26.0077 98.2129 25.4051 98.4276C24.8025 98.6354 24.1064 98.7393 23.3168 98.7393ZM24.5843 95.6847C25.2354 95.6847 25.8103 95.5566 26.309 95.3003C26.8077 95.0371 27.199 94.6839 27.483 94.2406C27.767 93.7973 27.909 93.2951 27.909 92.7341V91.0406C27.7704 91.1306 27.58 91.2137 27.3375 91.2899C27.1021 91.3592 26.8354 91.425 26.5375 91.4873C26.2397 91.5427 25.9419 91.5947 25.644 91.6432C25.3462 91.6847 25.0761 91.7228 24.8337 91.7574C24.3142 91.8336 23.8605 91.9548 23.4726 92.1211C23.0847 92.2873 22.7834 92.5124 22.5687 92.7964C22.354 93.0735 22.2466 93.4198 22.2466 93.8354C22.2466 94.438 22.4648 94.8986 22.9012 95.2172C23.3445 95.5289 23.9055 95.6847 24.5843 95.6847Z" fill="black"/>
  <path d="M0.935059 98.4381V77.1602H15.2727V80.8692H5.43376V85.9394H14.5351V89.6485H5.43376V94.729H15.3143V98.4381H0.935059Z" fill="black"/>
  <path d="M134.325 112.374C134.325 113.921 134.032 115.237 133.446 116.322C132.864 117.407 132.07 118.236 131.063 118.809C130.061 119.377 128.934 119.661 127.683 119.661C126.422 119.661 125.291 119.374 124.289 118.802C123.287 118.229 122.495 117.4 121.913 116.315C121.331 115.23 121.041 113.916 121.041 112.374C121.041 110.827 121.331 109.511 121.913 108.426C122.495 107.341 123.287 106.514 124.289 105.946C125.291 105.374 126.422 105.087 127.683 105.087C128.934 105.087 130.061 105.374 131.063 105.946C132.07 106.514 132.864 107.341 133.446 108.426C134.032 109.511 134.325 110.827 134.325 112.374ZM131.285 112.374C131.285 111.372 131.135 110.527 130.834 109.839C130.539 109.151 130.121 108.629 129.581 108.274C129.041 107.918 128.408 107.74 127.683 107.74C126.958 107.74 126.325 107.918 125.785 108.274C125.245 108.629 124.825 109.151 124.525 109.839C124.229 110.527 124.081 111.372 124.081 112.374C124.081 113.376 124.229 114.221 124.525 114.909C124.825 115.597 125.245 116.119 125.785 116.474C126.325 116.83 126.958 117.008 127.683 117.008C128.408 117.008 129.041 116.83 129.581 116.474C130.121 116.119 130.539 115.597 130.834 114.909C131.135 114.221 131.285 113.376 131.285 112.374Z" fill="url(#paint1_linear_1448_14)"/>
  <path d="M118.823 105.281V119.467H115.823V105.281H118.823Z" fill="url(#paint2_linear_1448_14)"/>
  <path fill-rule="evenodd" clip-rule="evenodd" d="M108.495 112.457H0V112.152H108.495V112.457Z" fill="black"/>
  <path fill-rule="evenodd" clip-rule="evenodd" d="M160 112.457L141.714 112.457L141.714 112.152L160 112.152L160 112.457Z" fill="black"/>
  <defs>
    <linearGradient id="paint0_linear_1448_14" x1="46.5515" y1="38.0952" x2="112.534" y2="38.0952" gradientUnits="userSpaceOnUse">
      <stop stop-color="#1E90FF"/>
      <stop offset="1" stop-color="#125699"/>
    </linearGradient>
    <linearGradient id="paint1_linear_1448_14" x1="121.041" y1="112.374" x2="134.325" y2="112.374" gradientUnits="userSpaceOnUse">
      <stop stop-color="#1E90FF"/>
      <stop offset="1" stop-color="#125699"/>
    </linearGradient>
    <linearGradient id="paint2_linear_1448_14" x1="115.823" y1="112.374" x2="118.823" y2="112.374" gradientUnits="userSpaceOnUse">
      <stop stop-color="#1E90FF"/>
      <stop offset="1" stop-color="#125699"/>
    </linearGradient>
  </defs>
</svg>
