<svg width="525" height="393" viewBox="0 0 525 393" fill="none" xmlns="http://www.w3.org/2000/svg">
<path fill-rule="evenodd" clip-rule="evenodd" d="M369.253 62.5L261 0L152.747 62.5V187.5L261 250L369.253 187.5V62.5ZM325.952 87.5L261 50L196.048 87.5V162.5L261 200L325.952 162.5V87.5Z" fill="url(#paint0_linear_1439_32)"/>
<path d="M486.392 307.932L486.426 290.511H488.54L505.312 270.636H521.983L499.449 296.955H496.006L486.392 307.932ZM473.233 323V253.182H487.756V323H473.233ZM505.96 323L490.551 300.193L500.233 289.932L522.972 323H505.96Z" fill="black"/>
<path d="M440.548 324.023C435.184 324.023 430.571 322.886 426.707 320.614C422.866 318.318 419.912 315.136 417.844 311.068C415.798 307 414.775 302.318 414.775 297.023C414.775 291.659 415.809 286.955 417.878 282.909C419.969 278.841 422.934 275.67 426.775 273.398C430.616 271.102 435.184 269.955 440.48 269.955C445.048 269.955 449.048 270.784 452.48 272.443C455.912 274.102 458.628 276.432 460.628 279.432C462.628 282.432 463.73 285.955 463.934 290H450.23C449.844 287.386 448.821 285.284 447.162 283.693C445.525 282.08 443.378 281.273 440.719 281.273C438.469 281.273 436.503 281.886 434.821 283.114C433.162 284.318 431.866 286.08 430.934 288.398C430.003 290.716 429.537 293.523 429.537 296.818C429.537 300.159 429.991 303 430.9 305.341C431.832 307.682 433.139 309.466 434.821 310.693C436.503 311.921 438.469 312.534 440.719 312.534C442.378 312.534 443.866 312.193 445.184 311.511C446.525 310.83 447.628 309.841 448.491 308.546C449.378 307.227 449.957 305.648 450.23 303.807H463.934C463.707 307.807 462.616 311.33 460.662 314.375C458.73 317.398 456.059 319.761 452.65 321.466C449.241 323.171 445.207 324.023 440.548 324.023Z" fill="black"/>
<path d="M383.378 324.023C377.991 324.023 373.355 322.932 369.469 320.75C365.605 318.546 362.628 315.432 360.537 311.409C358.446 307.364 357.4 302.58 357.4 297.057C357.4 291.67 358.446 286.943 360.537 282.875C362.628 278.807 365.571 275.636 369.366 273.364C373.184 271.091 377.662 269.955 382.798 269.955C386.253 269.955 389.469 270.511 392.446 271.625C395.446 272.716 398.059 274.364 400.287 276.568C402.537 278.773 404.287 281.545 405.537 284.886C406.787 288.205 407.412 292.091 407.412 296.546V300.534H363.196V291.534H393.741C393.741 289.443 393.287 287.591 392.378 285.977C391.469 284.364 390.207 283.102 388.594 282.193C387.003 281.261 385.15 280.796 383.037 280.796C380.832 280.796 378.878 281.307 377.173 282.33C375.491 283.33 374.173 284.682 373.219 286.386C372.264 288.068 371.775 289.943 371.753 292.011V300.568C371.753 303.159 372.23 305.398 373.184 307.284C374.162 309.17 375.537 310.625 377.309 311.648C379.082 312.671 381.184 313.182 383.616 313.182C385.23 313.182 386.707 312.955 388.048 312.5C389.389 312.046 390.537 311.364 391.491 310.455C392.446 309.545 393.173 308.432 393.673 307.114L407.105 308C406.423 311.227 405.025 314.045 402.912 316.455C400.821 318.841 398.116 320.705 394.798 322.046C391.503 323.364 387.696 324.023 383.378 324.023Z" fill="black"/>
<path d="M314.131 292.727V323H299.608V253.182H313.722V279.875H314.335C315.517 276.784 317.426 274.364 320.062 272.614C322.699 270.841 326.006 269.955 329.983 269.955C333.619 269.955 336.79 270.75 339.494 272.341C342.222 273.909 344.335 276.171 345.835 279.125C347.358 282.057 348.108 285.568 348.085 289.659V323H333.562V292.25C333.585 289.023 332.767 286.511 331.108 284.716C329.472 282.921 327.176 282.023 324.222 282.023C322.244 282.023 320.494 282.443 318.972 283.284C317.472 284.125 316.29 285.352 315.426 286.966C314.585 288.557 314.153 290.477 314.131 292.727Z" fill="black"/>
<path d="M289.295 277.625H274.364C274.091 275.693 273.534 273.977 272.693 272.477C271.852 270.955 270.773 269.659 269.454 268.591C268.136 267.523 266.614 266.705 264.886 266.136C263.182 265.568 261.329 265.284 259.329 265.284C255.716 265.284 252.568 266.182 249.886 267.977C247.204 269.75 245.125 272.341 243.648 275.75C242.17 279.136 241.432 283.25 241.432 288.091C241.432 293.068 242.17 297.25 243.648 300.636C245.148 304.023 247.239 306.58 249.92 308.307C252.602 310.034 255.704 310.898 259.227 310.898C261.204 310.898 263.034 310.636 264.716 310.114C266.42 309.591 267.932 308.83 269.25 307.83C270.568 306.807 271.659 305.568 272.523 304.114C273.409 302.659 274.023 301 274.364 299.136L289.295 299.205C288.909 302.409 287.943 305.5 286.398 308.477C284.875 311.432 282.818 314.08 280.227 316.42C277.659 318.739 274.591 320.58 271.023 321.943C267.477 323.284 263.466 323.955 258.989 323.955C252.761 323.955 247.193 322.545 242.284 319.727C237.398 316.909 233.534 312.83 230.693 307.489C227.875 302.148 226.466 295.682 226.466 288.091C226.466 280.477 227.898 274 230.761 268.659C233.625 263.318 237.511 259.25 242.42 256.455C247.329 253.636 252.852 252.227 258.989 252.227C263.034 252.227 266.784 252.795 270.239 253.932C273.716 255.068 276.795 256.727 279.477 258.909C282.159 261.068 284.341 263.716 286.023 266.852C287.727 269.989 288.818 273.58 289.295 277.625Z" fill="black"/>
<path d="M180.136 342.636C178.295 342.636 176.568 342.489 174.954 342.193C173.363 341.921 172.045 341.568 171 341.136L174.273 330.296C175.977 330.818 177.511 331.102 178.875 331.148C180.261 331.193 181.454 330.875 182.454 330.193C183.477 329.511 184.307 328.352 184.943 326.716L185.795 324.5L167.011 270.636H182.284L193.125 309.091H193.67L204.613 270.636H219.988L199.636 328.659C198.659 331.477 197.329 333.932 195.648 336.023C193.988 338.136 191.886 339.761 189.341 340.898C186.795 342.057 183.727 342.636 180.136 342.636Z" fill="black"/>
<path d="M160.832 285.568L147.537 286.386C147.31 285.25 146.821 284.227 146.071 283.318C145.321 282.386 144.332 281.648 143.105 281.102C141.901 280.534 140.457 280.25 138.776 280.25C136.526 280.25 134.628 280.727 133.082 281.682C131.537 282.614 130.764 283.864 130.764 285.432C130.764 286.682 131.264 287.739 132.264 288.602C133.264 289.466 134.98 290.159 137.412 290.682L146.889 292.591C151.98 293.636 155.776 295.318 158.276 297.636C160.776 299.955 162.026 303 162.026 306.773C162.026 310.205 161.014 313.216 158.992 315.807C156.992 318.398 154.242 320.421 150.742 321.875C147.264 323.307 143.253 324.023 138.707 324.023C131.776 324.023 126.253 322.58 122.139 319.693C118.048 316.784 115.651 312.83 114.946 307.83L129.23 307.08C129.662 309.193 130.707 310.807 132.367 311.921C134.026 313.011 136.151 313.557 138.741 313.557C141.287 313.557 143.332 313.068 144.878 312.091C146.446 311.091 147.242 309.807 147.264 308.239C147.242 306.921 146.685 305.841 145.594 305C144.503 304.136 142.821 303.477 140.548 303.023L131.48 301.216C126.367 300.193 122.56 298.421 120.06 295.898C117.582 293.375 116.344 290.159 116.344 286.25C116.344 282.886 117.253 279.989 119.071 277.557C120.912 275.125 123.492 273.25 126.81 271.932C130.151 270.614 134.06 269.955 138.537 269.955C145.151 269.955 150.355 271.352 154.151 274.148C157.969 276.943 160.196 280.75 160.832 285.568Z" fill="black"/>
<path d="M76.5084 323.989C73.1675 323.989 70.1903 323.409 67.5766 322.25C64.963 321.068 62.8948 319.33 61.3721 317.034C59.8721 314.716 59.1221 311.83 59.1221 308.375C59.1221 305.466 59.6562 303.023 60.7243 301.046C61.7925 299.068 63.2471 297.477 65.088 296.273C66.9289 295.068 69.0198 294.159 71.3607 293.546C73.7243 292.932 76.2016 292.5 78.7925 292.25C81.838 291.932 84.2925 291.636 86.1562 291.364C88.0198 291.068 89.3721 290.636 90.213 290.068C91.0539 289.5 91.4743 288.659 91.4743 287.546V287.341C91.4743 285.182 90.7925 283.511 89.4289 282.33C88.088 281.148 86.1789 280.557 83.7016 280.557C81.088 280.557 79.0084 281.136 77.463 282.296C75.9175 283.432 74.8948 284.864 74.3948 286.591L60.963 285.5C61.6448 282.318 62.9857 279.568 64.9857 277.25C66.9857 274.909 69.5653 273.114 72.7243 271.864C75.9062 270.591 79.588 269.955 83.7698 269.955C86.6789 269.955 89.463 270.296 92.1221 270.977C94.8039 271.659 97.1789 272.716 99.2471 274.148C101.338 275.58 102.986 277.421 104.19 279.671C105.395 281.898 105.997 284.568 105.997 287.682V323H92.2243V315.739H91.8153C90.9743 317.375 89.8493 318.818 88.4403 320.068C87.0312 321.296 85.338 322.261 83.3607 322.966C81.3834 323.648 79.0993 323.989 76.5084 323.989ZM80.6675 313.966C82.8039 313.966 84.6903 313.545 86.3266 312.705C87.963 311.841 89.2471 310.682 90.1789 309.227C91.1107 307.773 91.5766 306.125 91.5766 304.284V298.727C91.1221 299.023 90.4971 299.296 89.7016 299.546C88.9289 299.773 88.0539 299.989 87.0766 300.193C86.0993 300.375 85.1221 300.545 84.1448 300.705C83.1675 300.841 82.2812 300.966 81.4857 301.08C79.7812 301.33 78.2925 301.727 77.0198 302.273C75.7471 302.818 74.7584 303.557 74.0539 304.489C73.3493 305.398 72.9971 306.534 72.9971 307.898C72.9971 309.875 73.713 311.386 75.1448 312.432C76.5993 313.455 78.4403 313.966 80.6675 313.966Z" fill="black"/>
<path d="M3.06812 323V253.182H50.1136V265.352H17.8295V281.989H47.6931V294.159H17.8295V310.83H50.2499V323H3.06812Z" fill="black"/>
<path d="M440.756 368.727C440.756 373.803 439.794 378.121 437.869 381.682C435.96 385.242 433.354 387.962 430.051 389.841C426.763 391.704 423.066 392.636 418.96 392.636C414.824 392.636 411.112 391.697 407.824 389.818C404.536 387.939 401.938 385.22 400.028 381.659C398.119 378.098 397.165 373.788 397.165 368.727C397.165 363.651 398.119 359.333 400.028 355.773C401.938 352.212 404.536 349.5 407.824 347.636C411.112 345.758 414.824 344.818 418.96 344.818C423.066 344.818 426.763 345.758 430.051 347.636C433.354 349.5 435.96 352.212 437.869 355.773C439.794 359.333 440.756 363.651 440.756 368.727ZM430.778 368.727C430.778 365.439 430.286 362.667 429.301 360.409C428.331 358.151 426.96 356.439 425.188 355.273C423.415 354.106 421.339 353.523 418.96 353.523C416.581 353.523 414.506 354.106 412.733 355.273C410.96 356.439 409.581 358.151 408.597 360.409C407.627 362.667 407.142 365.439 407.142 368.727C407.142 372.015 407.627 374.788 408.597 377.045C409.581 379.303 410.96 381.015 412.733 382.182C414.506 383.348 416.581 383.932 418.96 383.932C421.339 383.932 423.415 383.348 425.188 382.182C426.96 381.015 428.331 379.303 429.301 377.045C430.286 374.788 430.778 372.015 430.778 368.727Z" fill="url(#paint1_linear_1439_32)"/>
<path d="M389.886 345.455V392H380.045V345.455H389.886Z" fill="url(#paint2_linear_1439_32)"/>
<path fill-rule="evenodd" clip-rule="evenodd" d="M356 369H0V368H356V369Z" fill="black"/>
<path fill-rule="evenodd" clip-rule="evenodd" d="M525 369L465 369L465 368L525 368L525 369Z" fill="black"/>
<defs>
<linearGradient id="paint0_linear_1439_32" x1="152.747" y1="125" x2="369.253" y2="125" gradientUnits="userSpaceOnUse">
<stop stop-color="#1E90FF"/>
<stop offset="1" stop-color="#125699"/>
</linearGradient>
<linearGradient id="paint1_linear_1439_32" x1="397.165" y1="368.727" x2="440.756" y2="368.727" gradientUnits="userSpaceOnUse">
<stop stop-color="#1E90FF"/>
<stop offset="1" stop-color="#125699"/>
</linearGradient>
<linearGradient id="paint2_linear_1439_32" x1="380.045" y1="368.727" x2="389.886" y2="368.727" gradientUnits="userSpaceOnUse">
<stop stop-color="#1E90FF"/>
<stop offset="1" stop-color="#125699"/>
</linearGradient>
</defs>
</svg>
