<svg width="48" height="25" viewBox="0 0 48 25" fill="none" xmlns="http://www.w3.org/2000/svg">
<path fill-rule="evenodd" clip-rule="evenodd" d="M20 13L0 13L0 12L20 12V13Z" fill="black"/>
<path fill-rule="evenodd" clip-rule="evenodd" d="M48 13H28V12H48V13Z" fill="black"/>
<path d="M23.7854 16.1108C23.5042 16.1108 23.2627 16.0114 23.061 15.8125C22.8621 15.6108 22.7627 15.3693 22.7627 15.0881C22.7627 14.8097 22.8621 14.571 23.061 14.3722C23.2627 14.1733 23.5042 14.0739 23.7854 14.0739C24.0581 14.0739 24.2968 14.1733 24.5013 14.3722C24.7059 14.571 24.8081 14.8097 24.8081 15.0881C24.8081 15.2756 24.7599 15.4475 24.6633 15.6037C24.5695 15.7571 24.4459 15.8807 24.2925 15.9745C24.1391 16.0654 23.9701 16.1108 23.7854 16.1108ZM23.7854 11.5256C23.5042 11.5256 23.2627 11.4262 23.061 11.2273C22.8621 11.0284 22.7627 10.787 22.7627 10.5029C22.7627 10.2245 22.8621 9.98724 23.061 9.79122C23.2627 9.59235 23.5042 9.49292 23.7854 9.49292C24.0581 9.49292 24.2968 9.59235 24.5013 9.79122C24.7059 9.98724 24.8081 10.2245 24.8081 10.5029C24.8081 10.6932 24.7599 10.8665 24.6633 11.0227C24.5695 11.1762 24.4459 11.2983 24.2925 11.3892C24.1391 11.4801 23.9701 11.5256 23.7854 11.5256Z" fill="black"/>
<path d="M8.26292 8.99998H6.28564L9.29843 0.272705H11.6763L14.6848 8.99998H12.7075L10.5214 2.26702H10.4533L8.26292 8.99998ZM8.13934 5.56958H12.8098V7.00992H8.13934V5.56958Z" fill="#00A3FF"/>
<path d="M41.4587 3.32804H39.5922C39.5581 3.08656 39.4885 2.87207 39.3834 2.68457C39.2783 2.49423 39.1433 2.3323 38.9786 2.19878C38.8138 2.06525 38.6234 1.96298 38.4075 1.89196C38.1945 1.82093 37.9629 1.78542 37.7129 1.78542C37.2612 1.78542 36.8678 1.89764 36.5325 2.12207C36.1973 2.34366 35.9374 2.66753 35.7527 3.09366C35.568 3.51696 35.4757 4.03116 35.4757 4.63628C35.4757 5.25843 35.568 5.78116 35.7527 6.20446C35.9402 6.62775 36.2016 6.94735 36.5368 7.16326C36.872 7.37917 37.2598 7.48713 37.7002 7.48713C37.9473 7.48713 38.176 7.45446 38.3862 7.38912C38.5993 7.32378 38.7882 7.2286 38.953 7.1036C39.1178 6.97576 39.2541 6.82093 39.3621 6.63912C39.4729 6.4573 39.5496 6.24991 39.5922 6.01696L41.4587 6.02548C41.4104 6.42605 41.2896 6.81241 41.0965 7.18457C40.9061 7.55389 40.649 7.88485 40.3252 8.17747C40.0041 8.46724 39.6206 8.69735 39.1746 8.86781C38.7314 9.03542 38.23 9.11923 37.6703 9.11923C36.8919 9.11923 36.1959 8.94309 35.5823 8.59082C34.9715 8.23855 34.4885 7.7286 34.1334 7.06099C33.7811 6.39338 33.605 5.58514 33.605 4.63628C33.605 3.68457 33.784 2.87491 34.1419 2.2073C34.4999 1.53968 34.9857 1.03116 35.5993 0.68173C36.2129 0.329457 36.9033 0.15332 37.6703 0.15332C38.176 0.15332 38.6448 0.224343 39.0766 0.366389C39.5112 0.508434 39.8962 0.71582 40.2314 0.988547C40.5666 1.25843 40.8394 1.5894 41.0496 1.98145C41.2627 2.37349 41.399 2.82235 41.4587 3.32804Z" fill="#00A3FF"/>
<path d="M6.7583 25V16.2727H10.2526C10.8947 16.2727 11.4302 16.3679 11.8592 16.5582C12.2881 16.7486 12.6106 17.0128 12.8265 17.3508C13.0424 17.6861 13.1503 18.0724 13.1503 18.5099C13.1503 18.8508 13.0822 19.1505 12.9458 19.4091C12.8094 19.6648 12.6219 19.875 12.3833 20.0398C12.1475 20.2017 11.8776 20.3167 11.5736 20.3849V20.4701C11.906 20.4844 12.2171 20.5781 12.5069 20.7514C12.7995 20.9247 13.0367 21.1676 13.2185 21.4801C13.4003 21.7898 13.4913 22.1591 13.4913 22.588C13.4913 23.0511 13.3762 23.4645 13.1461 23.8281C12.9188 24.1889 12.5822 24.4744 12.1361 24.6846C11.6901 24.8949 11.1404 25 10.487 25H6.7583ZM8.60347 23.4915H10.1077C10.6219 23.4915 10.9969 23.3934 11.2327 23.1974C11.4685 22.9986 11.5864 22.7344 11.5864 22.4048C11.5864 22.1633 11.5282 21.9503 11.4117 21.7656C11.2952 21.5809 11.129 21.4361 10.9131 21.3309C10.7001 21.2258 10.4458 21.1733 10.1503 21.1733H8.60347V23.4915ZM8.60347 19.9247H9.97137C10.2242 19.9247 10.4486 19.8807 10.6447 19.7926C10.8435 19.7017 10.9998 19.5738 11.1134 19.4091C11.2299 19.2443 11.2881 19.0469 11.2881 18.8167C11.2881 18.5014 11.1759 18.2471 10.9515 18.054C10.7299 17.8608 10.4146 17.7642 10.0055 17.7642H8.60347V19.9247Z" fill="#00A3FF"/>
<path d="M37.8521 25H34.7583V16.2727H37.8776C38.7555 16.2727 39.5111 16.4474 40.1447 16.7969C40.7782 17.1434 41.2654 17.642 41.6063 18.2926C41.9501 18.9432 42.1219 19.7216 42.1219 20.6278C42.1219 21.5369 41.9501 22.3182 41.6063 22.9716C41.2654 23.625 40.7753 24.1264 40.1361 24.4758C39.4998 24.8253 38.7384 25 37.8521 25ZM36.6035 23.419H37.7753C38.3208 23.419 38.7796 23.3224 39.1518 23.1292C39.5268 22.9332 39.808 22.6307 39.9955 22.2216C40.1859 21.8096 40.281 21.2784 40.281 20.6278C40.281 19.9829 40.1859 19.4559 39.9955 19.0469C39.808 18.6378 39.5282 18.3366 39.156 18.1434C38.7839 17.9503 38.3251 17.8537 37.7796 17.8537H36.6035V23.419Z" fill="#00A3FF"/>
</svg>
