<!DOCTYPE svg PUBLIC "-//W3C//DTD SVG 1.1//EN" "http://www.w3.org/Graphics/SVG/1.1/DTD/svg11.dtd">
<!-- Uploaded to: SVG Repo, www.svgrepo.com, Transformed by: SVG Repo Mixer Tools -->
<svg version="1.1" id="designs" xmlns="http://www.w3.org/2000/svg" xmlns:xlink="http://www.w3.org/1999/xlink" width="800px" height="800px" viewBox="0 0 32 32" xml:space="preserve" fill="#000000">
<g id="SVGRepo_bgCarrier" stroke-width="0"/>
<g id="SVGRepo_tracerCarrier" stroke-linecap="round" stroke-linejoin="round"/>
<g id="SVGRepo_iconCarrier"> <style type="text/css"> .sketchy_een{fill:#ffffff;} </style> <path class="sketchy_een" d="M28.012,27.34c-0.008-0.267-0.047-0.527-0.068-0.792c-0.054-0.647-0.072-1.298-0.072-1.947 c0.002-0.333-0.017-0.667-0.021-1c-0.006-0.353-0.012-0.703-0.019-1.054c-0.019-0.742-0.05-1.48-0.095-2.22 c-0.079-1.291-0.017-2.583-0.035-3.873c-0.008-0.606-0.016-1.207,0.027-1.812c0.05-0.707,0.072-1.415,0.077-2.124 c0.004-0.442-0.372-0.812-0.814-0.812c-0.192,0-0.364,0.079-0.505,0.195c-0.047,0.003-0.095,0.005-0.143,0.014 c-0.02,0.004-0.04,0.008-0.06,0.011c-0.242,0.024-0.489,0.022-0.733,0.025c-0.006-0.266-0.003-0.532-0.002-0.799 c0-0.354,0-0.709-0.006-1.063c-0.014-0.765,0.01-1.529,0.06-2.292c0.029-0.423-0.372-0.773-0.773-0.773 c-0.163,0-0.3,0.06-0.42,0.143c-0.014-0.001-0.026-0.007-0.04-0.007c-0.069,0-0.139,0.008-0.208,0.023 c-0.229,0.014-0.459,0.009-0.688,0.026c-0.31,0.025-0.618,0.082-0.926,0.129c-0.101,0.011-0.203,0.012-0.305,0.02 c-0.035-1.18-0.063-2.36-0.041-3.54C22.212,3.372,21.827,3,21.387,3c-0.297,0-0.551,0.173-0.695,0.416 c-0.599,0.039-1.198,0.082-1.799,0.11c-0.787,0.037-1.575,0.029-2.362,0.029c-0.769,0.002-1.538,0.01-2.308,0 c-0.787-0.008-1.571,0.002-2.356,0.002c-1.079,0-2.16,0.01-3.238-0.017C8.063,3.523,7.499,3.514,6.931,3.535 C6.342,3.554,5.759,3.529,5.172,3.498c-0.131-0.007-0.25,0.035-0.36,0.095C4.413,3.641,4.064,3.98,4.08,4.398 c0.033,0.907,0.048,1.815,0.035,2.724C4.109,7.502,4.086,7.88,4.067,8.259C4.047,8.662,4.045,9.065,4.04,9.466 c-0.012,0.814-0.019,1.625-0.021,2.438c-0.002,0.853,0.019,1.701,0.041,2.553c0.049,1.862,0.035,3.728,0.012,5.59 c-0.055,0.105-0.093,0.219-0.093,0.345c0,0.411,0.349,0.779,0.767,0.767c1.097-0.028,2.214-0.124,3.308-0.008 c0.001,0.048,0,0.095,0.001,0.143c0.008,0.568,0.012,1.135,0.021,1.701c0.006,0.273,0.008,0.546,0.012,0.82 c0.001,0.167-0.001,0.332-0.001,0.498c-0.057,0.108-0.097,0.227-0.097,0.36c0,0.418,0.366,0.825,0.802,0.8 c0.624-0.033,1.25-0.077,1.874-0.099c0.225-0.006,0.451-0.006,0.676-0.006c0.213,0,0.427-0.001,0.642-0.008 c0.002,0.06,0.003,0.12,0.005,0.179c0.014,0.417,0.037,0.833,0.052,1.25c0.012,0.337,0.041,0.678,0.023,1.013 c-0.015,0.259,0.139,0.48,0.348,0.617c0.137,0.283,0.421,0.493,0.748,0.484c0.465-0.011,0.93-0.031,1.395-0.037 c0.409-0.004,0.82-0.006,1.23-0.025c0.418-0.019,0.839-0.015,1.257-0.025c0.388-0.01,0.767,0.041,1.155,0.058 c0.601,0.029,1.207,0.029,1.812,0.027c0.217,0,0.432,0,0.649,0c0.417,0.004,0.835,0.035,1.252,0.041 c0.409,0.008,0.816,0,1.223-0.004c0.558-0.004,1.118-0.017,1.676-0.014c0.093,0.002,0.188,0.002,0.281,0 c0.188,0,0.376-0.002,0.566,0.006c0.273,0.012,0.546,0.047,0.82,0.066c0.251,0.019,0.474-0.106,0.633-0.29 c0.059,0.016,0.117,0.037,0.178,0.037c0.403,0,0.732-0.335,0.736-0.736C28.023,27.786,28.019,27.563,28.012,27.34z M6.807,19.638 c-0.403-0.008-0.806-0.006-1.209-0.008c0.013-0.528,0.04-1.056,0.042-1.585c0.004-0.783-0.002-1.564-0.008-2.346 c-0.006-0.823-0.023-1.647-0.029-2.47c-0.006-0.829,0.012-1.66,0.019-2.49c0.008-1-0.008-1.998,0.025-2.995 c0.031-0.897,0.066-1.793,0.07-2.689c0.261,0,0.522,0.008,0.783-0.01c0.376-0.027,0.754-0.062,1.131-0.066 c0.789-0.008,1.581,0.015,2.37,0.031c0.785,0.018,1.567,0.02,2.35,0.031c0.397,0.006,0.794,0.008,1.192,0.015 c0.38,0.008,0.758,0.031,1.137,0.037c1.102,0.016,2.207,0.025,3.309,0.027c0.529,0.002,1.056,0,1.585-0.017 c0.342-0.01,0.687-0.024,1.03-0.042c0.01,0.248,0.021,0.497,0.022,0.745c0,0.547-0.035,1.094-0.024,1.64 c-0.074,0.004-0.149,0.005-0.223,0.009c-0.765,0.048-1.527,0.046-2.294,0.033c-0.88-0.016-1.761-0.014-2.641-0.014 c-0.698,0.002-1.395,0.002-2.092-0.006c-0.603-0.006-1.203-0.006-1.806-0.031c-0.665-0.029-1.323-0.023-1.988,0.023 C9.484,7.466,9.416,7.49,9.348,7.511c-0.122-0.075-0.256-0.13-0.4-0.13c-0.438,0-0.773,0.356-0.785,0.785 c-0.023,0.858-0.05,1.717-0.089,2.577c-0.016,0.37-0.048,0.738-0.066,1.106c-0.017,0.384-0.016,0.769-0.021,1.153 c-0.017,1.536,0.027,3.075,0.041,4.611c0.005,0.67,0.011,1.34,0.015,2.01C7.631,19.65,7.22,19.648,6.807,19.638z M10.665,23.833 c-0.354,0.022-0.708,0.025-1.062,0.027c0-0.077,0.001-0.155,0-0.232c-0.006-0.354-0.01-0.711-0.016-1.067 c-0.01-0.763-0.016-1.525-0.014-2.288c0.002-0.771-0.012-1.54-0.012-2.309c0.002-0.794,0.01-1.589,0.019-2.381 c0.012-1.178-0.029-2.354-0.021-3.532c0.002-0.581,0.006-1.163,0.043-1.746C9.63,9.877,9.654,9.45,9.68,9.023 c0.366-0.034,0.733-0.073,1.099-0.08c0.417-0.01,0.833-0.012,1.25-0.008c0.761,0.008,1.521,0.004,2.282,0.008 c0.779,0.002,1.56,0.004,2.341,0.008c0.806,0.004,1.61,0.033,2.416,0.033c0.914-0.002,1.829-0.058,2.743-0.087 c0.448-0.013,0.893-0.052,1.339-0.097c0.299-0.03,0.6-0.03,0.899-0.028c0.001,0.058-0.002,0.116-0.001,0.175 c0.004,0.358-0.006,0.717-0.014,1.075c-0.01,0.354-0.023,0.709-0.039,1.066c-0.014,0.292-0.017,0.586-0.027,0.879 c-0.706,0.001-1.41,0.002-2.116,0.002c-1.533,0-3.067,0.006-4.6,0.02c-0.635,0.006-1.267,0.033-1.903,0.025 c-0.668-0.01-1.335-0.013-2.003,0.025c-0.109,0.006-0.213,0.031-0.308,0.072c-0.075-0.023-0.151-0.048-0.235-0.048 c-0.434,0-0.851,0.376-0.827,0.827c0.045,0.858,0.099,1.711,0.062,2.571c-0.033,0.729-0.045,1.455-0.07,2.184 c-0.052,1.548-0.066,3.096-0.064,4.644c0,0.495,0.01,0.989,0.031,1.484C11.514,23.811,11.087,23.805,10.665,23.833z M25.375,27.287 c-0.366,0.004-0.732,0.027-1.099,0.042c-0.787,0.031-1.579,0.035-2.368,0.031c-0.322-0.002-0.641,0-0.963,0 c-0.498,0-0.998,0-1.496-0.01c-0.419-0.008-0.837-0.012-1.254-0.043c-0.388-0.027-0.767-0.062-1.155-0.064 c-0.304,0-0.606,0.008-0.911,0.018c-0.327,0.008-0.657,0.017-0.984,0.013c-0.521-0.006-1.041-0.028-1.563-0.039 c0.005-0.333,0.015-0.666,0.01-0.998c-0.006-0.351-0.023-0.7-0.029-1.048c-0.008-0.403-0.006-0.806-0.023-1.209 c-0.033-0.794-0.035-1.587-0.027-2.381c0.006-0.777,0.012-1.552,0.041-2.329c0.041-1.025,0.06-2.054,0.062-3.081 c0.002-0.51,0.027-1.017,0.037-1.527c0.007-0.354-0.007-0.708-0.014-1.063c1.519-0.104,3.042-0.126,4.562-0.133 c1.515-0.006,3.03,0.014,4.545,0.031c0.672,0.008,1.345,0.023,2.019,0.029c0.476,0.005,0.952,0.011,1.428,0.002 c0.007,0.467,0.009,0.933-0.01,1.399c-0.008,0.155-0.019,0.31-0.031,0.463c-0.014,0.201-0.002,0.401,0.002,0.601 c0.01,0.372,0.012,0.742,0.017,1.114c0.014,0.781,0.019,1.56,0.052,2.339c0.031,0.723,0.097,1.443,0.12,2.166 c0.019,0.62,0.031,1.242,0.027,1.864c-0.002,0.589,0.021,1.178,0.035,1.767c0.01,0.523,0.048,1.048,0.101,1.568 c0.015,0.156,0.025,0.314,0.033,0.473c-0.023-0.001-0.044-0.014-0.067-0.012C26.11,27.289,25.742,27.281,25.375,27.287z M17.147,17.165c0-0.418,0.362-0.818,0.796-0.796c0.643,0.031,1.283,0.072,1.926,0.035c0.314-0.017,0.628-0.035,0.942-0.056 c0.213-0.015,0.426-0.042,0.639-0.044c0.002,0,0.005,0,0.007,0c0.446,0,0.817,0.38,0.817,0.823c0,0.219-0.087,0.43-0.24,0.583 c-0.167,0.165-0.357,0.221-0.583,0.242C20.925,18,20.397,17.99,19.87,18.002c-0.285,0.006-0.572-0.016-0.858-0.021 c-0.357-0.006-0.713-0.008-1.068-0.019C17.51,17.948,17.147,17.609,17.147,17.165z M21.761,19.166c0.475-0.011,0.87,0.403,0.87,0.87 c0,0.49-0.395,0.849-0.87,0.87c-1.126,0.05-2.259,0.044-3.387,0.01c-0.479-0.015-0.878-0.387-0.878-0.878 c0-0.455,0.382-0.88,0.847-0.88c0.01,0,0.021,0,0.031,0.001c0.405,0.017,0.81,0.042,1.215,0.054c0.269,0.008,0.541-0.002,0.81-0.004 C20.853,19.208,21.308,19.176,21.761,19.166z M22.645,23.019c0,0.484-0.386,0.818-0.847,0.847c-0.227,0.014-0.457,0.004-0.686,0.004 c-0.271,0-0.542,0.004-0.814,0c-0.327-0.004-0.655-0.014-0.984-0.002c-0.388,0.013-0.775,0.027-1.162,0.037 c-0.461,0.012-0.847-0.393-0.847-0.845c0-0.467,0.386-0.839,0.847-0.847c0.715-0.01,1.432-0.002,2.147-0.013 c0.386-0.005,0.773-0.034,1.159-0.034c0.114,0,0.227,0.002,0.341,0.009C22.26,22.201,22.645,22.539,22.645,23.019z"/> </g>
</svg>