<svg width="7" height="20" viewBox="0 0 7 20" fill="none" xmlns="http://www.w3.org/2000/svg">
  <path fill-rule="evenodd" clip-rule="evenodd" d="M0.6 0H7V0.933333H0.6V0ZM7 10V1.6H0.6V10H7ZM7 10.6667V20H0.6V10.6667H7ZM2.00799 8.71828V2.61505L1.70239 2.23333L6.02559 2.23333L5.71999 2.61505V8.71828L6.02559 9.1H1.70239L2.00799 8.71828ZM4.824 12C4.824 12.4418 5.16785 12.8 5.592 12.8C6.01615 12.8 6.36 12.4418 6.36 12C6.36 11.5582 6.01615 11.2 5.592 11.2C5.16785 11.2 4.824 11.5582 4.824 12ZM5.592 14.9333C5.16785 14.9333 4.824 14.5752 4.824 14.1333C4.824 13.6915 5.16785 13.3333 5.592 13.3333C6.01615 13.3333 6.36 13.6915 6.36 14.1333C6.36 14.5752 6.01615 14.9333 5.592 14.9333ZM4.824 16.2667C4.824 16.7085 5.16785 17.0667 5.592 17.0667C6.01615 17.0667 6.36 16.7085 6.36 16.2667C6.36 15.8248 6.01615 15.4667 5.592 15.4667C5.16785 15.4667 4.824 15.8248 4.824 16.2667ZM5.592 19.2C5.16785 19.2 4.824 18.8418 4.824 18.4C4.824 17.9582 5.16785 17.6 5.592 17.6C6.01615 17.6 6.36 17.9582 6.36 18.4C6.36 18.8418 6.01615 19.2 5.592 19.2ZM1.368 12C1.368 12.4418 1.71185 12.8 2.136 12.8C2.56015 12.8 2.904 12.4418 2.904 12C2.904 11.5582 2.56015 11.2 2.136 11.2C1.71185 11.2 1.368 11.5582 1.368 12ZM2.136 14.9333C1.71185 14.9333 1.368 14.5752 1.368 14.1333C1.368 13.6915 1.71185 13.3333 2.136 13.3333C2.56015 13.3333 2.904 13.6915 2.904 14.1333C2.904 14.5752 2.56015 14.9333 2.136 14.9333ZM1.368 16.2667C1.368 16.7085 1.71185 17.0667 2.136 17.0667C2.56015 17.0667 2.904 16.7085 2.904 16.2667C2.904 15.8248 2.56015 15.4667 2.136 15.4667C1.71185 15.4667 1.368 15.8248 1.368 16.2667ZM2.136 19.2C1.71185 19.2 1.368 18.8418 1.368 18.4C1.368 17.9582 1.71185 17.6 2.136 17.6C2.56015 17.6 2.904 17.9582 2.904 18.4C2.904 18.8418 2.56015 19.2 2.136 19.2Z" fill="#000000" fill-opacity="0.82"/>
</svg>
