<svg width="143" height="107" viewBox="0 0 143 107" fill="none" xmlns="http://www.w3.org/2000/svg">
<path fill-rule="evenodd" clip-rule="evenodd" d="M90.7428 3.37939C84.319 0.238891 76.7634 -0.600386 69.5257 2.20675C62.9379 4.76186 56.9447 10.2072 52.3803 18.9806C42.7639 15.0963 33.9539 17.9351 28.322 24H28V24.3542C22.814 30.1799 20.498 38.7959 22.9083 46.9388C17.9729 48.1574 13.5167 51.054 9.94565 54.8176C5.42889 59.578 2.15175 65.8988 0.975926 72.5658C-0.204226 79.2573 0.720173 86.4146 4.79321 92.6368C8.87392 98.8708 15.8982 103.837 26.3022 106.551L26.6746 106.648H112.121L112.528 106.531C135.332 99.9635 144.26 82.2053 141.578 66.0423C139.093 51.0663 126.675 37.9332 107.525 37.0792C110.851 22.6052 102.343 9.05069 90.7428 3.37939ZM31.7045 60.0909V66.1761H42.392V95H49.6875V66.1761H60.375V60.0909H31.7045ZM72.4773 95V60.0909H65.0966V95H72.4773ZM76.6577 95H84.5668L87.1564 87.0398H99.7606L102.345 95H110.254L98.2202 60.0909H88.7088L76.6577 95ZM97.89 81.2784L93.6009 68.0682H93.3281L89.0306 81.2784H97.89Z" fill="#1e90ff"/>
</svg>
