<svg width="165" height="190" viewBox="0 0 165 190" fill="none" xmlns="http://www.w3.org/2000/svg">
  <path fill-rule="evenodd" clip-rule="evenodd" d="M164.632 47.5L82.3601 0L0.0876465 47.5V142.5L82.3601 190L164.632 142.5V47.5ZM131.724 66.5L82.3601 38L32.9966 66.5V123.5L82.3601 152L131.724 123.5V66.5Z" fill="url(#paint0_linear_1443_34)"/>
  <path d="M105.139 95.1709C105.139 99.0285 104.408 102.31 102.946 105.016C101.495 107.722 99.5142 109.789 97.0039 111.217C94.5051 112.634 91.6954 113.342 88.5748 113.342C85.4312 113.342 82.61 112.628 80.1112 111.2C77.6124 109.772 75.6375 107.705 74.1866 104.999C72.7357 102.293 72.0103 99.017 72.0103 95.1709C72.0103 91.3133 72.7357 88.0315 74.1866 85.3255C75.6375 82.6194 77.6124 80.5582 80.1112 79.1418C82.61 77.7139 85.4312 77 88.5748 77C91.6954 77 94.5051 77.7139 97.0039 79.1418C99.5142 80.5582 101.495 82.6194 102.946 85.3255C104.408 88.0315 105.139 91.3133 105.139 95.1709ZM97.5566 95.1709C97.5566 92.6721 97.1824 90.5648 96.4339 88.8491C95.6969 87.1333 94.6548 85.8321 93.3075 84.9455C91.9603 84.0588 90.3827 83.6155 88.5748 83.6155C86.7669 83.6155 85.1893 84.0588 83.8421 84.9455C82.4948 85.8321 81.4469 87.1333 80.6984 88.8491C79.9615 90.5648 79.593 92.6721 79.593 95.1709C79.593 97.6697 79.9615 99.777 80.6984 101.493C81.4469 103.208 82.4948 104.51 83.8421 105.396C85.1893 106.283 86.7669 106.726 88.5748 106.726C90.3827 106.726 91.9603 106.283 93.3075 105.396C94.6548 104.51 95.6969 103.208 96.4339 101.493C97.1824 99.777 97.5566 97.6697 97.5566 95.1709Z" fill="url(#paint1_linear_1443_34)"/>
  <path d="M66.4791 77.4836V112.858H59V77.4836H66.4791Z" fill="url(#paint2_linear_1443_34)"/>
  <defs>
    <linearGradient id="paint0_linear_1443_34" x1="0.0876465" y1="95" x2="164.632" y2="95" gradientUnits="userSpaceOnUse">
      <stop stop-color="#1E90FF"/>
      <stop offset="1" stop-color="#125699"/>
    </linearGradient>
    <linearGradient id="paint1_linear_1443_34" x1="72.0103" y1="95.1709" x2="105.139" y2="95.1709" gradientUnits="userSpaceOnUse">
      <stop stop-color="#1E90FF"/>
      <stop offset="1" stop-color="#125699"/>
    </linearGradient>
    <linearGradient id="paint2_linear_1443_34" x1="59" y1="95.1709" x2="66.4791" y2="95.1709" gradientUnits="userSpaceOnUse">
      <stop stop-color="#1E90FF"/>
      <stop offset="1" stop-color="#125699"/>
    </linearGradient>
  </defs>
</svg>
